<mxfile host="app.diagrams.net" modified="2022-11-22T02:07:01.074Z" agent="5.0 (Windows NT 10.0; Win64; x64) AppleWebKit/537.36 (KHTML, like Gecko) Chrome/107.0.0.0 Safari/537.36" etag="BacsSXEcJYiodrTsZYnx" version="20.5.3" type="github">
  <diagram id="GGFVwZLPDX0u6j_QgqO_" name="Page-1">
    <mxGraphModel dx="1296" dy="722" grid="1" gridSize="10" guides="1" tooltips="1" connect="1" arrows="1" fold="1" page="1" pageScale="1" pageWidth="827" pageHeight="1169" math="0" shadow="0">
      <root>
        <mxCell id="0" />
        <mxCell id="1" parent="0" />
        <mxCell id="lL5NQ_jLCUP09xk7kELb-1" value="" style="group" vertex="1" connectable="0" parent="1">
          <mxGeometry x="50" y="75" width="750" height="1020" as="geometry" />
        </mxCell>
        <mxCell id="15-sbqZGuxTu5TddLMk6-40" style="edgeStyle=orthogonalEdgeStyle;rounded=0;orthogonalLoop=1;jettySize=auto;html=1;entryX=0.583;entryY=-0.033;entryDx=0;entryDy=0;entryPerimeter=0;" parent="lL5NQ_jLCUP09xk7kELb-1" source="15-sbqZGuxTu5TddLMk6-21" target="15-sbqZGuxTu5TddLMk6-24" edge="1">
          <mxGeometry relative="1" as="geometry">
            <Array as="points">
              <mxPoint x="290" y="670" />
              <mxPoint x="400" y="670" />
            </Array>
          </mxGeometry>
        </mxCell>
        <mxCell id="15-sbqZGuxTu5TddLMk6-1" value="Start" style="rounded=1;whiteSpace=wrap;html=1;" parent="lL5NQ_jLCUP09xk7kELb-1" vertex="1">
          <mxGeometry x="230" width="120" height="60" as="geometry" />
        </mxCell>
        <mxCell id="15-sbqZGuxTu5TddLMk6-3" value="User" style="rounded=0;whiteSpace=wrap;html=1;" parent="lL5NQ_jLCUP09xk7kELb-1" vertex="1">
          <mxGeometry y="100" width="120" height="60" as="geometry" />
        </mxCell>
        <mxCell id="15-sbqZGuxTu5TddLMk6-29" style="edgeStyle=orthogonalEdgeStyle;rounded=0;orthogonalLoop=1;jettySize=auto;html=1;entryX=1;entryY=0.5;entryDx=0;entryDy=0;exitX=0.5;exitY=1;exitDx=0;exitDy=0;" parent="lL5NQ_jLCUP09xk7kELb-1" source="15-sbqZGuxTu5TddLMk6-1" target="15-sbqZGuxTu5TddLMk6-3" edge="1">
          <mxGeometry relative="1" as="geometry" />
        </mxCell>
        <mxCell id="15-sbqZGuxTu5TddLMk6-4" value="Admin" style="rounded=0;whiteSpace=wrap;html=1;" parent="lL5NQ_jLCUP09xk7kELb-1" vertex="1">
          <mxGeometry x="420" y="100" width="120" height="60" as="geometry" />
        </mxCell>
        <mxCell id="15-sbqZGuxTu5TddLMk6-28" style="edgeStyle=orthogonalEdgeStyle;rounded=0;orthogonalLoop=1;jettySize=auto;html=1;entryX=0;entryY=0.5;entryDx=0;entryDy=0;exitX=0.5;exitY=1;exitDx=0;exitDy=0;" parent="lL5NQ_jLCUP09xk7kELb-1" source="15-sbqZGuxTu5TddLMk6-1" target="15-sbqZGuxTu5TddLMk6-4" edge="1">
          <mxGeometry relative="1" as="geometry" />
        </mxCell>
        <mxCell id="15-sbqZGuxTu5TddLMk6-5" value="Login" style="rhombus;whiteSpace=wrap;html=1;" parent="lL5NQ_jLCUP09xk7kELb-1" vertex="1">
          <mxGeometry x="440" y="200" width="80" height="80" as="geometry" />
        </mxCell>
        <mxCell id="15-sbqZGuxTu5TddLMk6-54" style="edgeStyle=orthogonalEdgeStyle;rounded=0;orthogonalLoop=1;jettySize=auto;html=1;entryX=0.5;entryY=0;entryDx=0;entryDy=0;" parent="lL5NQ_jLCUP09xk7kELb-1" source="15-sbqZGuxTu5TddLMk6-4" target="15-sbqZGuxTu5TddLMk6-5" edge="1">
          <mxGeometry relative="1" as="geometry" />
        </mxCell>
        <mxCell id="15-sbqZGuxTu5TddLMk6-6" value="Add Category" style="rounded=1;whiteSpace=wrap;html=1;" parent="lL5NQ_jLCUP09xk7kELb-1" vertex="1">
          <mxGeometry x="520" y="350" width="120" height="30" as="geometry" />
        </mxCell>
        <mxCell id="15-sbqZGuxTu5TddLMk6-11" value="Report" style="shape=document;whiteSpace=wrap;html=1;boundedLbl=1;" parent="lL5NQ_jLCUP09xk7kELb-1" vertex="1">
          <mxGeometry x="630" y="730" width="120" height="80" as="geometry" />
        </mxCell>
        <mxCell id="15-sbqZGuxTu5TddLMk6-65" style="edgeStyle=orthogonalEdgeStyle;rounded=0;orthogonalLoop=1;jettySize=auto;html=1;entryX=0.5;entryY=0;entryDx=0;entryDy=0;startArrow=none;startFill=0;endArrow=classic;endFill=1;" parent="lL5NQ_jLCUP09xk7kELb-1" source="15-sbqZGuxTu5TddLMk6-6" target="15-sbqZGuxTu5TddLMk6-11" edge="1">
          <mxGeometry relative="1" as="geometry">
            <Array as="points">
              <mxPoint x="690" y="365" />
            </Array>
          </mxGeometry>
        </mxCell>
        <mxCell id="15-sbqZGuxTu5TddLMk6-70" style="edgeStyle=orthogonalEdgeStyle;rounded=0;orthogonalLoop=1;jettySize=auto;html=1;entryX=0.5;entryY=0;entryDx=0;entryDy=0;startArrow=none;startFill=0;endArrow=classic;endFill=1;" parent="lL5NQ_jLCUP09xk7kELb-1" source="15-sbqZGuxTu5TddLMk6-12" target="15-sbqZGuxTu5TddLMk6-11" edge="1">
          <mxGeometry relative="1" as="geometry">
            <Array as="points">
              <mxPoint x="690" y="432" />
            </Array>
          </mxGeometry>
        </mxCell>
        <mxCell id="15-sbqZGuxTu5TddLMk6-12" value="Add Product" style="rounded=1;whiteSpace=wrap;html=1;" parent="lL5NQ_jLCUP09xk7kELb-1" vertex="1">
          <mxGeometry x="520" y="417" width="120" height="30" as="geometry" />
        </mxCell>
        <mxCell id="15-sbqZGuxTu5TddLMk6-71" style="edgeStyle=orthogonalEdgeStyle;rounded=0;orthogonalLoop=1;jettySize=auto;html=1;entryX=0.5;entryY=0;entryDx=0;entryDy=0;startArrow=none;startFill=0;endArrow=classic;endFill=1;" parent="lL5NQ_jLCUP09xk7kELb-1" source="15-sbqZGuxTu5TddLMk6-13" target="15-sbqZGuxTu5TddLMk6-11" edge="1">
          <mxGeometry relative="1" as="geometry">
            <Array as="points">
              <mxPoint x="690" y="499" />
            </Array>
          </mxGeometry>
        </mxCell>
        <mxCell id="15-sbqZGuxTu5TddLMk6-13" value="Manage Order" style="rounded=1;whiteSpace=wrap;html=1;" parent="lL5NQ_jLCUP09xk7kELb-1" vertex="1">
          <mxGeometry x="520" y="484" width="120" height="30" as="geometry" />
        </mxCell>
        <mxCell id="15-sbqZGuxTu5TddLMk6-72" style="edgeStyle=orthogonalEdgeStyle;rounded=0;orthogonalLoop=1;jettySize=auto;html=1;entryX=0.5;entryY=0;entryDx=0;entryDy=0;startArrow=none;startFill=0;endArrow=classic;endFill=1;" parent="lL5NQ_jLCUP09xk7kELb-1" source="15-sbqZGuxTu5TddLMk6-14" target="15-sbqZGuxTu5TddLMk6-11" edge="1">
          <mxGeometry relative="1" as="geometry">
            <Array as="points">
              <mxPoint x="690" y="566" />
            </Array>
          </mxGeometry>
        </mxCell>
        <mxCell id="15-sbqZGuxTu5TddLMk6-14" value="Manage Payment" style="rounded=1;whiteSpace=wrap;html=1;" parent="lL5NQ_jLCUP09xk7kELb-1" vertex="1">
          <mxGeometry x="520" y="551" width="120" height="30" as="geometry" />
        </mxCell>
        <mxCell id="15-sbqZGuxTu5TddLMk6-77" style="edgeStyle=orthogonalEdgeStyle;rounded=0;orthogonalLoop=1;jettySize=auto;html=1;entryX=0.5;entryY=0;entryDx=0;entryDy=0;startArrow=none;startFill=0;endArrow=classic;endFill=1;" parent="lL5NQ_jLCUP09xk7kELb-1" source="15-sbqZGuxTu5TddLMk6-15" target="15-sbqZGuxTu5TddLMk6-11" edge="1">
          <mxGeometry relative="1" as="geometry">
            <Array as="points">
              <mxPoint x="690" y="633" />
            </Array>
          </mxGeometry>
        </mxCell>
        <mxCell id="15-sbqZGuxTu5TddLMk6-15" value="Check Feedback" style="rounded=1;whiteSpace=wrap;html=1;" parent="lL5NQ_jLCUP09xk7kELb-1" vertex="1">
          <mxGeometry x="520" y="618" width="120" height="30" as="geometry" />
        </mxCell>
        <mxCell id="15-sbqZGuxTu5TddLMk6-16" value="Login" style="rhombus;whiteSpace=wrap;html=1;" parent="lL5NQ_jLCUP09xk7kELb-1" vertex="1">
          <mxGeometry x="20" y="200" width="80" height="80" as="geometry" />
        </mxCell>
        <mxCell id="15-sbqZGuxTu5TddLMk6-30" style="edgeStyle=orthogonalEdgeStyle;rounded=0;orthogonalLoop=1;jettySize=auto;html=1;entryX=0.5;entryY=0;entryDx=0;entryDy=0;" parent="lL5NQ_jLCUP09xk7kELb-1" source="15-sbqZGuxTu5TddLMk6-3" target="15-sbqZGuxTu5TddLMk6-16" edge="1">
          <mxGeometry relative="1" as="geometry" />
        </mxCell>
        <mxCell id="15-sbqZGuxTu5TddLMk6-51" style="edgeStyle=orthogonalEdgeStyle;rounded=0;orthogonalLoop=1;jettySize=auto;html=1;entryX=0.5;entryY=1;entryDx=0;entryDy=0;" parent="lL5NQ_jLCUP09xk7kELb-1" source="15-sbqZGuxTu5TddLMk6-17" target="15-sbqZGuxTu5TddLMk6-3" edge="1">
          <mxGeometry relative="1" as="geometry">
            <Array as="points">
              <mxPoint x="290" y="180" />
              <mxPoint x="60" y="180" />
            </Array>
          </mxGeometry>
        </mxCell>
        <mxCell id="15-sbqZGuxTu5TddLMk6-52" value="No" style="edgeLabel;html=1;align=center;verticalAlign=middle;resizable=0;points=[];" parent="15-sbqZGuxTu5TddLMk6-51" vertex="1" connectable="0">
          <mxGeometry x="-0.2044" y="-1" relative="1" as="geometry">
            <mxPoint x="-23" as="offset" />
          </mxGeometry>
        </mxCell>
        <mxCell id="15-sbqZGuxTu5TddLMk6-17" value="Register" style="rhombus;whiteSpace=wrap;html=1;" parent="lL5NQ_jLCUP09xk7kELb-1" vertex="1">
          <mxGeometry x="250" y="200" width="80" height="80" as="geometry" />
        </mxCell>
        <mxCell id="15-sbqZGuxTu5TddLMk6-31" style="edgeStyle=orthogonalEdgeStyle;rounded=0;orthogonalLoop=1;jettySize=auto;html=1;entryX=0;entryY=0.5;entryDx=0;entryDy=0;" parent="lL5NQ_jLCUP09xk7kELb-1" source="15-sbqZGuxTu5TddLMk6-16" target="15-sbqZGuxTu5TddLMk6-17" edge="1">
          <mxGeometry relative="1" as="geometry" />
        </mxCell>
        <mxCell id="15-sbqZGuxTu5TddLMk6-18" value="Search Product" style="rounded=1;whiteSpace=wrap;html=1;" parent="lL5NQ_jLCUP09xk7kELb-1" vertex="1">
          <mxGeometry x="230" y="302" width="120" height="30" as="geometry" />
        </mxCell>
        <mxCell id="15-sbqZGuxTu5TddLMk6-87" style="edgeStyle=orthogonalEdgeStyle;rounded=0;orthogonalLoop=1;jettySize=auto;html=1;entryX=0;entryY=0.5;entryDx=0;entryDy=0;startArrow=none;startFill=0;endArrow=classic;endFill=1;exitX=0.5;exitY=1;exitDx=0;exitDy=0;" parent="lL5NQ_jLCUP09xk7kELb-1" source="15-sbqZGuxTu5TddLMk6-16" target="15-sbqZGuxTu5TddLMk6-18" edge="1">
          <mxGeometry relative="1" as="geometry">
            <Array as="points">
              <mxPoint x="60" y="317" />
            </Array>
          </mxGeometry>
        </mxCell>
        <mxCell id="15-sbqZGuxTu5TddLMk6-19" value="View Product" style="rounded=1;whiteSpace=wrap;html=1;" parent="lL5NQ_jLCUP09xk7kELb-1" vertex="1">
          <mxGeometry x="230" y="379" width="120" height="30" as="geometry" />
        </mxCell>
        <mxCell id="15-sbqZGuxTu5TddLMk6-88" style="edgeStyle=orthogonalEdgeStyle;rounded=0;orthogonalLoop=1;jettySize=auto;html=1;entryX=0;entryY=0.5;entryDx=0;entryDy=0;startArrow=none;startFill=0;endArrow=classic;endFill=1;exitX=0.5;exitY=1;exitDx=0;exitDy=0;" parent="lL5NQ_jLCUP09xk7kELb-1" source="15-sbqZGuxTu5TddLMk6-16" target="15-sbqZGuxTu5TddLMk6-19" edge="1">
          <mxGeometry relative="1" as="geometry" />
        </mxCell>
        <mxCell id="15-sbqZGuxTu5TddLMk6-20" value="Buy Product and Add to Cart" style="rounded=1;whiteSpace=wrap;html=1;" parent="lL5NQ_jLCUP09xk7kELb-1" vertex="1">
          <mxGeometry x="230" y="445" width="120" height="50" as="geometry" />
        </mxCell>
        <mxCell id="15-sbqZGuxTu5TddLMk6-89" style="edgeStyle=orthogonalEdgeStyle;rounded=0;orthogonalLoop=1;jettySize=auto;html=1;entryX=0;entryY=0.5;entryDx=0;entryDy=0;startArrow=none;startFill=0;endArrow=classic;endFill=1;exitX=0.5;exitY=1;exitDx=0;exitDy=0;" parent="lL5NQ_jLCUP09xk7kELb-1" source="15-sbqZGuxTu5TddLMk6-16" target="15-sbqZGuxTu5TddLMk6-20" edge="1">
          <mxGeometry relative="1" as="geometry">
            <Array as="points">
              <mxPoint x="60" y="470" />
            </Array>
          </mxGeometry>
        </mxCell>
        <mxCell id="15-sbqZGuxTu5TddLMk6-38" style="edgeStyle=orthogonalEdgeStyle;rounded=0;orthogonalLoop=1;jettySize=auto;html=1;entryX=1;entryY=0.5;entryDx=0;entryDy=0;exitX=1;exitY=0.5;exitDx=0;exitDy=0;" parent="lL5NQ_jLCUP09xk7kELb-1" source="15-sbqZGuxTu5TddLMk6-21" target="15-sbqZGuxTu5TddLMk6-20" edge="1">
          <mxGeometry relative="1" as="geometry">
            <Array as="points">
              <mxPoint x="420" y="573" />
              <mxPoint x="420" y="470" />
            </Array>
          </mxGeometry>
        </mxCell>
        <mxCell id="15-sbqZGuxTu5TddLMk6-39" value="No" style="edgeLabel;html=1;align=center;verticalAlign=middle;resizable=0;points=[];" parent="15-sbqZGuxTu5TddLMk6-38" vertex="1" connectable="0">
          <mxGeometry x="-0.5535" relative="1" as="geometry">
            <mxPoint x="-9" as="offset" />
          </mxGeometry>
        </mxCell>
        <mxCell id="15-sbqZGuxTu5TddLMk6-21" value="Payment" style="rhombus;whiteSpace=wrap;html=1;" parent="lL5NQ_jLCUP09xk7kELb-1" vertex="1">
          <mxGeometry x="250" y="533" width="80" height="80" as="geometry" />
        </mxCell>
        <mxCell id="15-sbqZGuxTu5TddLMk6-37" style="edgeStyle=orthogonalEdgeStyle;rounded=0;orthogonalLoop=1;jettySize=auto;html=1;exitX=0.5;exitY=1;exitDx=0;exitDy=0;entryX=0.5;entryY=0;entryDx=0;entryDy=0;" parent="lL5NQ_jLCUP09xk7kELb-1" source="15-sbqZGuxTu5TddLMk6-20" target="15-sbqZGuxTu5TddLMk6-21" edge="1">
          <mxGeometry relative="1" as="geometry" />
        </mxCell>
        <mxCell id="15-sbqZGuxTu5TddLMk6-23" value="Order Placed" style="rounded=1;whiteSpace=wrap;html=1;" parent="lL5NQ_jLCUP09xk7kELb-1" vertex="1">
          <mxGeometry x="130" y="770" width="320" height="30" as="geometry" />
        </mxCell>
        <mxCell id="15-sbqZGuxTu5TddLMk6-27" value="" style="group;flipV=0;flipH=0;" parent="lL5NQ_jLCUP09xk7kELb-1" vertex="1" connectable="0">
          <mxGeometry x="130" y="700" width="320" height="30" as="geometry" />
        </mxCell>
        <mxCell id="15-sbqZGuxTu5TddLMk6-22" value="Online Pay" style="rounded=1;whiteSpace=wrap;html=1;" parent="15-sbqZGuxTu5TddLMk6-27" vertex="1">
          <mxGeometry width="120" height="30" as="geometry" />
        </mxCell>
        <mxCell id="15-sbqZGuxTu5TddLMk6-24" value="Cash On Delivery" style="rounded=1;whiteSpace=wrap;html=1;" parent="15-sbqZGuxTu5TddLMk6-27" vertex="1">
          <mxGeometry x="200" width="120" height="30" as="geometry" />
        </mxCell>
        <mxCell id="15-sbqZGuxTu5TddLMk6-41" style="edgeStyle=orthogonalEdgeStyle;rounded=0;orthogonalLoop=1;jettySize=auto;html=1;entryX=0.5;entryY=0;entryDx=0;entryDy=0;" parent="lL5NQ_jLCUP09xk7kELb-1" source="15-sbqZGuxTu5TddLMk6-21" target="15-sbqZGuxTu5TddLMk6-22" edge="1">
          <mxGeometry relative="1" as="geometry">
            <Array as="points">
              <mxPoint x="290" y="670" />
              <mxPoint x="190" y="670" />
            </Array>
          </mxGeometry>
        </mxCell>
        <mxCell id="15-sbqZGuxTu5TddLMk6-42" value="Yes" style="edgeLabel;html=1;align=center;verticalAlign=middle;resizable=0;points=[];" parent="15-sbqZGuxTu5TddLMk6-41" vertex="1" connectable="0">
          <mxGeometry x="-0.8075" relative="1" as="geometry">
            <mxPoint y="9" as="offset" />
          </mxGeometry>
        </mxCell>
        <mxCell id="15-sbqZGuxTu5TddLMk6-44" value="Stop" style="ellipse;whiteSpace=wrap;html=1;" parent="lL5NQ_jLCUP09xk7kELb-1" vertex="1">
          <mxGeometry x="240" y="940" width="120" height="80" as="geometry" />
        </mxCell>
        <mxCell id="15-sbqZGuxTu5TddLMk6-45" style="edgeStyle=orthogonalEdgeStyle;rounded=0;orthogonalLoop=1;jettySize=auto;html=1;entryX=0.75;entryY=0;entryDx=0;entryDy=0;" parent="lL5NQ_jLCUP09xk7kELb-1" source="15-sbqZGuxTu5TddLMk6-24" target="15-sbqZGuxTu5TddLMk6-23" edge="1">
          <mxGeometry relative="1" as="geometry" />
        </mxCell>
        <mxCell id="15-sbqZGuxTu5TddLMk6-46" style="edgeStyle=orthogonalEdgeStyle;rounded=0;orthogonalLoop=1;jettySize=auto;html=1;entryX=0.25;entryY=0;entryDx=0;entryDy=0;" parent="lL5NQ_jLCUP09xk7kELb-1" source="15-sbqZGuxTu5TddLMk6-22" target="15-sbqZGuxTu5TddLMk6-23" edge="1">
          <mxGeometry relative="1" as="geometry" />
        </mxCell>
        <mxCell id="15-sbqZGuxTu5TddLMk6-90" style="edgeStyle=orthogonalEdgeStyle;rounded=0;orthogonalLoop=1;jettySize=auto;html=1;entryX=0.5;entryY=0;entryDx=0;entryDy=0;startArrow=none;startFill=0;endArrow=classic;endFill=1;" parent="lL5NQ_jLCUP09xk7kELb-1" source="15-sbqZGuxTu5TddLMk6-47" target="15-sbqZGuxTu5TddLMk6-44" edge="1">
          <mxGeometry relative="1" as="geometry" />
        </mxCell>
        <mxCell id="15-sbqZGuxTu5TddLMk6-47" value="Logout" style="rounded=1;whiteSpace=wrap;html=1;" parent="lL5NQ_jLCUP09xk7kELb-1" vertex="1">
          <mxGeometry x="240" y="840" width="120" height="30" as="geometry" />
        </mxCell>
        <mxCell id="15-sbqZGuxTu5TddLMk6-57" value="" style="endArrow=classic;html=1;rounded=0;exitX=1;exitY=0.5;exitDx=0;exitDy=0;startArrow=none;startFill=0;endFill=1;" parent="lL5NQ_jLCUP09xk7kELb-1" source="15-sbqZGuxTu5TddLMk6-5" edge="1">
          <mxGeometry width="50" height="50" relative="1" as="geometry">
            <mxPoint x="530" y="270" as="sourcePoint" />
            <mxPoint x="480" y="180" as="targetPoint" />
            <Array as="points">
              <mxPoint x="600" y="240" />
              <mxPoint x="600" y="180" />
            </Array>
          </mxGeometry>
        </mxCell>
        <mxCell id="15-sbqZGuxTu5TddLMk6-58" value="No" style="edgeLabel;html=1;align=center;verticalAlign=middle;resizable=0;points=[];" parent="15-sbqZGuxTu5TddLMk6-57" vertex="1" connectable="0">
          <mxGeometry x="-0.0808" relative="1" as="geometry">
            <mxPoint y="9" as="offset" />
          </mxGeometry>
        </mxCell>
        <mxCell id="15-sbqZGuxTu5TddLMk6-60" value="" style="endArrow=classic;html=1;rounded=0;" parent="lL5NQ_jLCUP09xk7kELb-1" edge="1">
          <mxGeometry width="50" height="50" relative="1" as="geometry">
            <mxPoint x="480" y="365" as="sourcePoint" />
            <mxPoint x="520" y="365" as="targetPoint" />
          </mxGeometry>
        </mxCell>
        <mxCell id="15-sbqZGuxTu5TddLMk6-61" value="" style="endArrow=classic;html=1;rounded=0;" parent="lL5NQ_jLCUP09xk7kELb-1" edge="1">
          <mxGeometry width="50" height="50" relative="1" as="geometry">
            <mxPoint x="480" y="431.76" as="sourcePoint" />
            <mxPoint x="520" y="432" as="targetPoint" />
          </mxGeometry>
        </mxCell>
        <mxCell id="15-sbqZGuxTu5TddLMk6-62" value="" style="endArrow=classic;html=1;rounded=0;" parent="lL5NQ_jLCUP09xk7kELb-1" edge="1">
          <mxGeometry width="50" height="50" relative="1" as="geometry">
            <mxPoint x="480" y="498.76" as="sourcePoint" />
            <mxPoint x="520" y="499" as="targetPoint" />
          </mxGeometry>
        </mxCell>
        <mxCell id="15-sbqZGuxTu5TddLMk6-63" value="" style="endArrow=classic;html=1;rounded=0;" parent="lL5NQ_jLCUP09xk7kELb-1" edge="1">
          <mxGeometry width="50" height="50" relative="1" as="geometry">
            <mxPoint x="480" y="565.76" as="sourcePoint" />
            <mxPoint x="520" y="566" as="targetPoint" />
          </mxGeometry>
        </mxCell>
        <mxCell id="15-sbqZGuxTu5TddLMk6-64" value="" style="endArrow=classic;html=1;rounded=0;" parent="lL5NQ_jLCUP09xk7kELb-1" edge="1">
          <mxGeometry width="50" height="50" relative="1" as="geometry">
            <mxPoint x="480" y="632.76" as="sourcePoint" />
            <mxPoint x="520" y="633" as="targetPoint" />
          </mxGeometry>
        </mxCell>
        <mxCell id="15-sbqZGuxTu5TddLMk6-50" style="edgeStyle=orthogonalEdgeStyle;rounded=0;orthogonalLoop=1;jettySize=auto;html=1;entryX=1;entryY=0.5;entryDx=0;entryDy=0;exitX=0.5;exitY=1;exitDx=0;exitDy=0;" parent="lL5NQ_jLCUP09xk7kELb-1" source="15-sbqZGuxTu5TddLMk6-5" target="15-sbqZGuxTu5TddLMk6-47" edge="1">
          <mxGeometry relative="1" as="geometry">
            <Array as="points">
              <mxPoint x="480" y="855" />
            </Array>
          </mxGeometry>
        </mxCell>
        <mxCell id="15-sbqZGuxTu5TddLMk6-59" value="Yes" style="edgeLabel;html=1;align=center;verticalAlign=middle;resizable=0;points=[];" parent="15-sbqZGuxTu5TddLMk6-50" vertex="1" connectable="0">
          <mxGeometry x="-0.9285" relative="1" as="geometry">
            <mxPoint as="offset" />
          </mxGeometry>
        </mxCell>
        <mxCell id="15-sbqZGuxTu5TddLMk6-49" style="edgeStyle=orthogonalEdgeStyle;rounded=0;orthogonalLoop=1;jettySize=auto;html=1;entryX=0;entryY=0.5;entryDx=0;entryDy=0;exitX=0.5;exitY=1;exitDx=0;exitDy=0;" parent="lL5NQ_jLCUP09xk7kELb-1" source="15-sbqZGuxTu5TddLMk6-16" target="15-sbqZGuxTu5TddLMk6-47" edge="1">
          <mxGeometry relative="1" as="geometry">
            <Array as="points">
              <mxPoint x="60" y="855" />
            </Array>
          </mxGeometry>
        </mxCell>
        <mxCell id="15-sbqZGuxTu5TddLMk6-53" value="Yes" style="edgeLabel;html=1;align=center;verticalAlign=middle;resizable=0;points=[];" parent="15-sbqZGuxTu5TddLMk6-49" vertex="1" connectable="0">
          <mxGeometry x="-0.9489" relative="1" as="geometry">
            <mxPoint as="offset" />
          </mxGeometry>
        </mxCell>
      </root>
    </mxGraphModel>
  </diagram>
</mxfile>
